<svg width="261" height="288" viewBox="0 0 261 288" fill="none" xmlns="http://www.w3.org/2000/svg">
<path d="M90.154 280.388C88.1884 278.606 86.234 276.736 84.3539 274.837L83.8373 274.321L82.7994 275.351L83.316 275.867C85.2178 277.781 87.1789 279.654 89.171 281.467L89.7132 281.958L90.6911 280.88L90.154 280.388ZM78.8565 268.994C77.0685 266.982 75.3198 264.918 73.6924 262.833L73.2404 262.257L72.1013 263.18L72.5534 263.755C74.2026 265.84 75.9578 267.924 77.764 269.958L78.2516 270.505L79.3409 269.531L78.8565 268.994ZM130.844 179.799L131.088 179.113L129.717 178.614L129.468 179.302C128.98 180.652 128.316 181.932 127.494 183.109C126.84 184.043 126.103 184.916 125.293 185.717L124.777 186.234L125.807 187.272L126.322 186.755C127.197 185.892 127.991 184.951 128.693 183.943C129.593 182.659 130.323 181.264 130.864 179.793L130.844 179.799ZM119.645 189.869L118.959 190.133C116.566 191.001 113.947 191.019 111.541 190.185L110.843 189.973L110.413 191.366L111.108 191.585C113.829 192.518 116.789 192.486 119.489 191.493L120.17 191.23L119.645 189.869ZM131.784 171.539C131.469 168.783 130.691 166.1 129.484 163.602L129.172 162.942L127.849 163.567L128.16 164.226C129.302 166.574 130.036 169.098 130.331 171.692L130.407 172.415L131.859 172.263L131.784 171.539ZM68.9166 256.402C67.3716 254.172 65.9162 251.909 64.5814 249.674L64.2074 249.045L62.9561 249.792L63.3285 250.415C64.6746 252.686 66.1566 254.98 67.7416 257.23L68.1564 257.828L69.3583 256.997L68.9166 256.402ZM104.776 186.45C102.719 184.794 100.85 182.915 99.2055 180.848L98.745 180.281L97.611 181.202L98.0715 181.769C99.7743 183.913 101.708 185.862 103.838 187.582L104.413 188.034L105.318 186.885L104.776 186.45ZM125.057 156.691C123.306 154.583 121.337 152.667 119.181 150.975L118.607 150.522L117.702 151.671L118.276 152.124C120.354 153.749 122.253 155.59 123.941 157.617L124.407 158.183L125.536 157.263L125.057 156.691ZM60.7792 242.658C59.5844 240.249 58.4912 237.775 57.547 235.347L57.2795 234.668L55.9199 235.198L56.1824 235.879C57.1494 238.36 58.2508 240.843 59.4669 243.301L59.7886 243.957L61.0992 243.309L60.7792 242.658ZM94.7539 174.297C93.4469 171.992 92.2962 169.602 91.3097 167.144L91.0372 166.466L89.6808 167.006L89.9534 167.684C90.9605 170.211 92.1396 172.667 93.4826 175.033L93.8414 175.666L95.1126 174.946L94.7539 174.297ZM112.898 146.913L112.237 146.594C111.27 146.116 110.271 145.682 109.301 145.301C107.741 144.693 106.134 144.214 104.495 143.869L103.778 143.719L103.481 145.148L104.199 145.298C105.757 145.622 107.285 146.078 108.765 146.661C109.716 147.032 110.691 147.446 111.598 147.909L112.266 148.253L112.898 146.913ZM54.999 227.768C54.2748 225.21 53.6848 222.615 53.2316 219.995L53.1125 219.274L51.6739 219.522L51.7929 220.243C52.254 222.915 52.8545 225.56 53.5922 228.168L53.7888 228.87L55.1972 228.475L54.999 227.768ZM88.8086 159.572C88.1263 157 87.5864 154.393 87.1913 151.762L87.084 151.043L85.6407 151.259L85.7496 151.983C86.1519 154.665 86.7041 157.323 87.4039 159.943L87.5904 160.648L89.0002 160.275L88.8086 159.572ZM52.3384 212.076C52.1894 209.426 52.1966 206.77 52.3601 204.121L52.4059 203.392L50.9529 203.299L50.9071 204.028C50.7367 206.735 50.7277 209.45 50.8799 212.158L50.9182 212.888L52.3767 212.806L52.3384 212.076ZM97.0197 143.303L96.2894 143.358C93.5487 143.593 90.8497 144.18 88.2598 145.107L87.5662 145.329L88.0523 146.709L88.7459 146.487C91.217 145.599 93.7934 145.037 96.4098 144.816L97.1384 144.755L97.0197 143.303ZM53.3377 196.223C53.8028 193.613 54.4042 190.993 55.1225 188.441L55.3225 187.74L53.9169 187.342L53.7185 188.047C52.9863 190.643 52.3709 193.306 51.8985 195.964L51.7654 196.682L53.2047 196.941L53.3377 196.223ZM86.4293 143.834C86.3147 141.209 86.3268 138.526 86.4766 135.854L86.5173 135.127L85.0542 135.037L85.0135 135.765C84.8681 138.485 84.8487 141.215 84.9678 143.889L85.001 144.621L86.4593 144.556L86.4293 143.834ZM81.5056 148.296L80.8858 148.678C78.566 150.116 76.3742 151.751 74.3347 153.565L73.791 154.046L74.7561 155.144L75.3033 154.656C77.2795 152.898 79.4032 151.313 81.6508 149.918L82.2691 149.53L81.5056 148.296ZM57.6679 180.873C58.6287 178.397 59.7156 175.972 60.9241 173.607L61.2684 172.939L59.9719 172.271L59.6276 172.939C58.3845 175.35 57.2684 177.823 56.284 180.35L56.0152 181.028L57.4109 181.552L57.6679 180.873ZM69.1188 158.84L68.6431 159.394C66.8866 161.465 65.2566 163.64 63.7619 165.907L63.3545 166.517L64.5771 167.32L64.9794 166.711C66.4406 164.494 68.0358 162.367 69.7563 160.344L70.2304 159.785L69.1188 158.84ZM87.3284 127.93C87.7772 125.313 88.3843 122.725 89.1464 120.181L89.3566 119.478L87.9613 119.059L87.7495 119.758C86.9675 122.36 86.3461 125.008 85.889 127.687L85.7677 128.407L87.2071 128.649L87.3284 127.93ZM126.073 67.6203L125.508 68.0858C123.438 69.7975 121.389 71.5918 119.392 73.3917L118.858 73.8862L119.86 74.9776L120.399 74.4815C122.357 72.6828 124.391 70.9102 126.439 69.1999L126.998 68.7309L126.073 67.6203ZM114.105 78.5159L113.592 79.0376C111.682 80.9882 109.832 82.9866 108.092 84.978L107.603 85.5084L108.703 86.4681L109.185 85.9175C110.905 83.9495 112.744 81.9879 114.632 80.0387L115.141 79.5186L114.105 78.5159ZM91.8658 112.686C92.8795 110.308 94.0534 107.889 95.3496 105.504L95.6939 104.836L94.413 104.129L94.0606 104.772C92.7387 107.199 91.5492 109.656 90.5181 112.085L90.2244 112.737L91.5675 113.306L91.8658 112.686ZM103.399 90.6658L102.953 91.2438C101.283 93.4192 99.7283 95.6246 98.2474 97.8511L97.845 98.4599L99.0676 99.2631L99.4683 98.6493C100.926 96.436 102.463 94.2808 104.111 92.1404L104.555 91.5574L103.399 90.6658Z" fill="white"/>
<path d="M161.449 62.5013L160.146 51.4538C160.146 51.4538 181.694 21.9423 181.847 21.3911L187.633 0.735596L170.84 17.1662L149.116 49.2343L161.449 62.5013Z" fill="#007F5F"/>
<path d="M129.391 43.0381L187.633 0.735596L149.118 49.2393L129.391 43.0381Z" fill="#04B78A"/>
<path d="M160.171 51.4457L181.087 58.1539L187.633 0.735596L160.171 51.4457Z" fill="#04B78A"/>
</svg>
