<svg width="84" height="33" viewBox="0 0 84 33" fill="none" xmlns="http://www.w3.org/2000/svg">
<path d="M20.1312 10.7671C19.6779 8.62202 18.5035 6.69773 16.8041 5.3156C15.1048 3.93347 12.9834 3.17719 10.7944 3.1731H10.5908C9.01441 3.20706 7.47103 3.63209 6.09888 4.41012C4.72674 5.18815 3.56866 6.29489 2.72836 7.63123C2.1127 8.60484 1.6809 9.68347 1.45445 10.8134C1.32725 11.4408 1.26319 12.0794 1.26321 12.7196C1.26007 14.091 1.55477 15.4467 2.12687 16.6927L9.40943 29.3318C9.5098 29.5186 9.6466 29.6834 9.81172 29.8163C9.97684 29.9492 10.1669 30.0475 10.3707 30.1055C10.5745 30.1634 10.7878 30.1798 10.998 30.1537C11.2082 30.1275 11.411 30.0593 11.5944 29.9532C11.7779 29.8471 11.9381 29.7051 12.0658 29.5358C12.1934 29.3665 12.2858 29.1732 12.3375 28.9674C12.3891 28.7617 12.399 28.5476 12.3666 28.338C12.3341 28.1283 12.2599 27.9273 12.1485 27.7469L5.4705 16.1582L5.4489 16.1211C5.35088 15.9733 5.26029 15.8207 5.17747 15.6639C4.98379 15.2933 4.82775 14.9041 4.7117 14.5023C4.3224 13.1509 4.38963 11.7086 4.90294 10.3994C5.1908 9.66019 5.61689 8.98279 6.15835 8.4036C6.76401 7.74858 7.50121 7.22936 8.3215 6.88006C9.14179 6.53075 10.0266 6.35928 10.9178 6.3769C12.4923 6.41536 13.9969 7.03648 15.1412 8.12045C16.2855 9.20442 16.9885 10.6744 17.1146 12.2469C17.1992 13.3053 17.0157 14.368 16.5809 15.3364C16.4058 15.7308 16.1897 16.1057 15.9363 16.4548L13.5519 20.5638L8.30826 11.4529C8.16926 11.2124 7.96956 11.0127 7.72919 10.8738C7.48881 10.735 7.21621 10.6619 6.93873 10.6619C6.66125 10.6619 6.38865 10.735 6.14827 10.8738C5.9079 11.0127 5.70819 11.2124 5.5692 11.4529C5.43122 11.6942 5.35863 11.9674 5.35863 12.2454C5.35863 12.5234 5.43122 12.7966 5.5692 13.0378L12.1793 24.5246C12.3187 24.765 12.5188 24.9646 12.7594 25.1034C13 25.2421 13.2728 25.3151 13.5504 25.3151C13.828 25.3151 14.1008 25.2421 14.3414 25.1034C14.582 24.9646 14.7821 24.765 14.9215 24.5246L19.5483 16.4919L19.5822 16.4177C20.0753 15.2443 20.327 13.9834 20.3225 12.7103C20.3229 12.0578 20.2588 11.4069 20.1312 10.7671Z" fill="#007F5F"/>
<path d="M28.0153 19.2031C28.0153 19.79 28.1193 20.3486 28.3272 20.8787C28.554 21.4088 28.8565 21.8821 29.2345 22.2986C29.6126 22.6962 30.0473 23.018 30.5388 23.2641C31.0491 23.4913 31.5878 23.6049 32.1549 23.6049C32.7219 23.6049 33.2512 23.4913 33.7426 23.2641C34.253 23.018 34.6877 22.6962 35.0469 22.2986C35.4249 21.8821 35.7179 21.4088 35.9258 20.8787C36.1526 20.3486 36.266 19.79 36.266 19.2031C36.266 18.6352 36.1526 18.0861 35.9258 17.556C35.7179 17.0259 35.4249 16.5621 35.0469 16.1645C34.6877 15.7669 34.253 15.4545 33.7426 15.2273C33.2512 14.9812 32.7219 14.8582 32.1549 14.8582C31.5878 14.8582 31.0491 14.9812 30.5388 15.2273C30.0473 15.4545 29.6126 15.7669 29.2345 16.1645C28.8565 16.5621 28.554 17.0259 28.3272 17.556C28.1193 18.0861 28.0153 18.6352 28.0153 19.2031ZM24.4429 19.2315C24.4429 18.1713 24.6224 17.1774 24.9816 16.2497C25.3596 15.322 25.87 14.5079 26.5126 13.8074C27.1553 13.1069 27.9019 12.5579 28.7525 12.1603C29.6031 11.7627 30.5199 11.5639 31.5028 11.5639C32.3911 11.5639 33.2228 11.7343 33.9978 12.0751C34.7917 12.397 35.5005 12.8513 36.1243 13.4382V6.39539H39.8385V26.2744H36.1243V25.0249C35.5005 25.6118 34.7917 26.0661 33.9978 26.388C33.2228 26.7288 32.3911 26.8992 31.5028 26.8992C30.5199 26.8992 29.6031 26.7004 28.7525 26.3028C27.9019 25.9052 27.1553 25.3562 26.5126 24.6557C25.87 23.9552 25.3596 23.1411 24.9816 22.2134C24.6224 21.2857 24.4429 20.2918 24.4429 19.2315Z" fill="#007F5F"/>
<path d="M46.1442 19.9699C46.1442 20.9355 46.4466 21.7306 47.0515 22.3554C47.6752 22.9612 48.4408 23.2641 49.348 23.2641C49.8017 23.2641 50.227 23.1789 50.6239 23.0086C51.0398 22.8382 51.3895 22.6015 51.673 22.2986C51.9754 21.9957 52.2117 21.6454 52.3818 21.2478C52.5519 20.8503 52.637 20.4243 52.637 19.9699V12.0751H56.3796V26.2744H52.637V24.9965C52.0888 25.5455 51.4556 25.9715 50.7373 26.2744C50.038 26.5773 49.2819 26.7288 48.4691 26.7288C47.6374 26.7288 46.853 26.5678 46.1158 26.246C45.3786 25.9241 44.736 25.4887 44.1878 24.9397C43.6397 24.3906 43.2049 23.7375 42.8836 22.9802C42.5622 22.2229 42.4016 21.4088 42.4016 20.5379V12.0751H46.1442V19.9699Z" fill="#007F5F"/>
<path d="M66.6436 15.0854C65.396 15.0854 64.4226 15.4356 63.7232 16.1361C63.0238 16.8366 62.6741 17.7548 62.6741 18.8908V26.2744H58.9316V12.0751H62.6741V13.6938C63.1278 13.0312 63.7138 12.52 64.432 12.1603C65.1503 11.8006 65.8875 11.6207 66.6436 11.6207V15.0854Z" fill="#007F5F"/>
<path d="M67.1384 19.2315C67.1384 18.1713 67.3369 17.1774 67.7338 16.2497C68.1497 15.322 68.7073 14.5079 69.4066 13.8074C70.1249 13.1069 70.9566 12.5579 71.9017 12.1603C72.8468 11.7627 73.858 11.5639 74.9355 11.5639C76.0129 11.5639 77.0241 11.7627 77.9692 12.1603C78.9143 12.5579 79.7366 13.1069 80.4359 13.8074C81.1542 14.5079 81.7118 15.322 82.1088 16.2497C82.5246 17.1774 82.7325 18.1713 82.7325 19.2315C82.7325 20.2918 82.5246 21.2857 82.1088 22.2134C81.7118 23.1411 81.1542 23.9552 80.4359 24.6557C79.7366 25.3562 78.9143 25.9052 77.9692 26.3028C77.0241 26.7004 76.0129 26.8992 74.9355 26.8992C73.858 26.8992 72.8468 26.7004 71.9017 26.3028C70.9566 25.9052 70.1249 25.3562 69.4066 24.6557C68.7073 23.9552 68.1497 23.1411 67.7338 22.2134C67.3369 21.2857 67.1384 20.2918 67.1384 19.2315ZM70.7109 19.2031C70.7109 19.79 70.8243 20.3486 71.0511 20.8787C71.2779 21.4088 71.5804 21.8821 71.9584 22.2986C72.3364 22.6962 72.7806 23.018 73.291 23.2641C73.8202 23.4913 74.3778 23.6049 74.9638 23.6049C75.5309 23.6049 76.0696 23.4913 76.5799 23.2641C77.0903 23.018 77.5345 22.6962 77.9125 22.2986C78.3095 21.8821 78.6119 21.4088 78.8198 20.8787C79.0466 20.3486 79.16 19.79 79.16 19.2031C79.16 18.6352 79.0466 18.0861 78.8198 17.556C78.6119 17.0259 78.3095 16.5621 77.9125 16.1645C77.5345 15.7669 77.0903 15.4545 76.5799 15.2273C76.0696 14.9812 75.5309 14.8582 74.9638 14.8582C74.3778 14.8582 73.8202 14.9812 73.291 15.2273C72.7806 15.4545 72.3364 15.7669 71.9584 16.1645C71.5804 16.5621 71.2779 17.0259 71.0511 17.556C70.8243 18.0861 70.7109 18.6352 70.7109 19.2031Z" fill="#007F5F"/>
</svg>
