<svg role="img" width="32" height="32" viewBox="0 0 32 32" fill="none" xmlns="http://www.w3.org/2000/svg">
<path d="M27.7255 21.9931C27.0318 20.7981 26.0005 17.4169 26.0005 13.0006C26.0005 10.3484 24.9469 7.80491 23.0716 5.92954C21.1962 4.05418 18.6527 3.00061 16.0005 3.00061C13.3483 3.00061 10.8048 4.05418 8.92944 5.92954C7.05407 7.80491 6.0005 10.3484 6.0005 13.0006C6.0005 17.4181 4.968 20.7981 4.27425 21.9931C4.09709 22.2969 4.00317 22.6421 4.00196 22.9937C4.00076 23.3454 4.09231 23.6912 4.26738 23.9962C4.44245 24.3012 4.69485 24.5547 4.99914 24.731C5.30342 24.9074 5.64882 25.0004 6.0005 25.0006H11.1018C11.3325 26.1296 11.946 27.1442 12.8387 27.8728C13.7313 28.6015 14.8482 28.9995 16.0005 28.9995C17.1528 28.9995 18.2697 28.6015 19.1623 27.8728C20.055 27.1442 20.6685 26.1296 20.8993 25.0006H26.0005C26.3521 25.0001 26.6973 24.907 27.0014 24.7306C27.3055 24.5541 27.5578 24.3007 27.7327 23.9957C27.9076 23.6907 27.9991 23.345 27.9978 22.9934C27.9965 22.6419 27.9026 22.2968 27.7255 21.9931ZM16.0005 27.0006C15.3803 27.0004 14.7754 26.808 14.269 26.4498C13.7626 26.0917 13.3797 25.5854 13.173 25.0006H18.828C18.6213 25.5854 18.2384 26.0917 17.732 26.4498C17.2257 26.808 16.6207 27.0004 16.0005 27.0006ZM6.0005 23.0006C6.963 21.3456 8.0005 17.5106 8.0005 13.0006C8.0005 10.8789 8.84336 8.84405 10.3436 7.34376C11.8439 5.84347 13.8788 5.00061 16.0005 5.00061C18.1222 5.00061 20.1571 5.84347 21.6574 7.34376C23.1576 8.84405 24.0005 10.8789 24.0005 13.0006C24.0005 17.5069 25.0355 21.3419 26.0005 23.0006H6.0005Z" fill="#525654"/>
</svg>
