<svg width="32" height="32" viewBox="0 0 32 32" fill="none" xmlns="http://www.w3.org/2000/svg">
<path d="M28.721 27.3061L22.4622 21.0486C24.2763 18.8707 25.1808 16.0773 24.9878 13.2495C24.7947 10.4217 23.5189 7.77716 21.4256 5.86606C19.3324 3.95495 16.583 2.92441 13.7494 2.98881C10.9157 3.05321 8.21592 4.20759 6.2117 6.21182C4.20747 8.21604 3.05309 10.9158 2.98869 13.7495C2.92429 16.5831 3.95483 19.3326 5.86593 21.4258C7.77704 23.519 10.4216 24.7948 13.2494 24.9879C16.0772 25.181 18.8706 24.2764 21.0485 22.4623L27.306 28.7211C27.3989 28.814 27.5092 28.8877 27.6306 28.938C27.752 28.9883 27.8821 29.0141 28.0135 29.0141C28.1449 29.0141 28.275 28.9883 28.3964 28.938C28.5178 28.8877 28.6281 28.814 28.721 28.7211C28.8139 28.6282 28.8876 28.5179 28.9379 28.3965C28.9881 28.2751 29.014 28.145 29.014 28.0136C29.014 27.8822 28.9881 27.7521 28.9379 27.6307C28.8876 27.5093 28.8139 27.399 28.721 27.3061ZM5.01347 14.0136C5.01347 12.2336 5.54131 10.4935 6.53024 9.01346C7.51918 7.53342 8.92478 6.37986 10.5693 5.69868C12.2139 5.01749 14.0235 4.83926 15.7693 5.18652C17.5151 5.53379 19.1188 6.39096 20.3774 7.64963C21.6361 8.9083 22.4933 10.5119 22.8405 12.2578C23.1878 14.0036 23.0096 15.8132 22.3284 17.4577C21.6472 19.1023 20.4936 20.5079 19.0136 21.4968C17.5336 22.4858 15.7935 23.0136 14.0135 23.0136C11.6273 23.0109 9.33968 22.0619 7.65243 20.3746C5.96518 18.6874 5.01612 16.3997 5.01347 14.0136Z" fill="#525654"/>
</svg>
