<svg width="244" height="91" viewBox="0 0 244 91" fill="none" xmlns="http://www.w3.org/2000/svg">
<g clip-path="url(#clip0_1_63)">
<path d="M4.29353 83.794L12.5107 90.2644L112.345 20.2427L104.744 15.9881L0.275421 71.0302L4.29353 83.794Z" fill="#FFA500"/>
<path d="M126.585 58.0349L209.429 13.063L204.795 0.299133L236.65 4.19988L243.637 9.07458L226.153 44.0408L219.498 39.6737L216.38 29.167L127.476 74.2216L126.585 58.0349Z" fill="#FFA500"/>
<path d="M7.58771 75.551L12.5107 90.2644L105.939 40.8494L122.119 85.7882L221.917 32.0756L226.153 44.0407L243.637 9.07456L212.361 5.48468L216.596 17.1853L129.178 64.9136L112.345 20.2427L7.58771 75.551Z" fill="#FCDC7A"/>
<path d="M77.5893 30.5824L104.741 16.2758L112.183 20.4412L128.982 65.0245L129.071 65.2609L216.685 17.4251L216.881 17.3176L212.707 5.78896L243.272 9.29782L230.83 34.1822L231.197 34.4567L244 8.85135L212.016 5.18045L216.312 17.0514L129.284 64.5681L112.507 20.0427L104.746 15.6987L77.3813 30.1178L77.5893 30.5824Z" fill="#1D1D1B"/>
<path d="M62.5757 38.4931L0.550948 71.1724L4.49478 83.6981L4.09229 83.8883L-0.000106812 70.888L0.190331 70.7888L62.3178 38.0549L62.5757 38.4931Z" fill="#1D1D1B"/>
<path d="M212.252 5.71289L204.678 0.264404L236.67 3.93696L236.631 4.46279L206.566 1.01016L212.471 5.25816L212.252 5.71289Z" fill="#1D1D1B"/>
<path d="M11.8922 89.1102L7.41888 75.7412L0.178177 71.265L0.372667 70.7954L7.75654 75.3592L12.2906 88.9101L11.8922 89.1102Z" fill="#1D1D1B"/>
<path d="M122.009 86.1354L121.922 85.894L105.827 41.195L61.8613 64.449L61.6911 63.9645L106.05 40.5038L122.229 85.4409L199.883 43.6455L200.057 44.1284L122.009 86.1354Z" fill="#1D1D1B"/>
<path d="M171.246 33.4886L142.321 49.2035L142.496 49.6856L171.421 33.9707L171.246 33.4886Z" fill="#1D1D1B"/>
</g>
<defs>
<clipPath id="clip0_1_63">
<rect width="244" height="90" fill="white" transform="translate(-0.000106812 0.264404)"/>
</clipPath>
</defs>
</svg>
