<svg role="img" width="56" height="32" viewBox="0 0 56 32" fill="none" xmlns="http://www.w3.org/2000/svg">
<rect width="32" height="32" rx="16" fill="#F2F2F2"/>
<path d="M27.8639 26.5396C26.1083 23.3834 23.4029 21.1201 20.2455 20.0472C21.8073 19.0804 23.0207 17.6072 23.6994 15.8538C24.378 14.1004 24.4845 12.1638 24.0023 10.3414C23.5202 8.51906 22.4761 6.91164 21.0305 5.76604C19.5849 4.62044 17.8176 4 16 4C14.1824 4 12.4151 4.62044 10.9695 5.76604C9.52385 6.91164 8.47979 8.51906 7.99765 10.3414C7.51552 12.1638 7.62196 14.1004 8.30065 15.8538C8.97933 17.6072 10.1927 19.0804 11.7545 20.0472C8.59714 21.1189 5.89168 23.3822 4.13606 26.5396C4.07168 26.6488 4.02898 26.7703 4.01047 26.8969C3.99197 27.0235 3.99803 27.1527 4.02831 27.2768C4.05859 27.4009 4.11247 27.5175 4.18678 27.6196C4.26108 27.7218 4.3543 27.8074 4.46093 27.8714C4.56757 27.9355 4.68546 27.9767 4.80766 27.9926C4.92985 28.0085 5.05387 27.9988 5.1724 27.964C5.29092 27.9293 5.40156 27.8702 5.49777 27.7903C5.59399 27.7103 5.67384 27.6112 5.7326 27.4986C7.90435 23.5955 11.743 21.2652 16 21.2652C20.257 21.2652 24.0956 23.5955 26.2674 27.4986C26.3262 27.6112 26.406 27.7103 26.5022 27.7903C26.5984 27.8702 26.7091 27.9293 26.8276 27.964C26.9461 27.9988 27.0701 28.0085 27.1923 27.9926C27.3145 27.9767 27.4324 27.9355 27.5391 27.8714C27.6457 27.8074 27.7389 27.7218 27.8132 27.6196C27.8875 27.5175 27.9414 27.4009 27.9717 27.2768C28.002 27.1527 28.008 27.0235 27.9895 26.8969C27.971 26.7703 27.9283 26.6488 27.8639 26.5396ZM9.54469 12.6342C9.54469 11.3065 9.92329 10.0086 10.6326 8.90469C11.3419 7.80075 12.3501 6.94033 13.5297 6.43224C14.7092 5.92416 16.0072 5.79122 17.2594 6.05024C18.5116 6.30926 19.6618 6.94861 20.5646 7.88743C21.4674 8.82626 22.0822 10.0224 22.3313 11.3246C22.5804 12.6268 22.4525 13.9765 21.9639 15.2032C21.4753 16.4298 20.6479 17.4782 19.5864 18.2158C18.5248 18.9535 17.2767 19.3472 16 19.3472C14.2885 19.3453 12.6476 18.6374 11.4374 17.3789C10.2272 16.1204 9.54652 14.414 9.54469 12.6342Z" fill="#525654"/>
<path d="M52.692 13.9422L46.442 20.1922C46.384 20.2503 46.3151 20.2964 46.2392 20.3278C46.1633 20.3593 46.082 20.3755 45.9999 20.3755C45.9177 20.3755 45.8364 20.3593 45.7605 20.3278C45.6846 20.2964 45.6157 20.2503 45.5577 20.1922L39.3077 13.9422C39.1904 13.8249 39.1245 13.6658 39.1245 13.5C39.1245 13.3341 39.1904 13.1751 39.3077 13.0578C39.4249 12.9405 39.584 12.8746 39.7499 12.8746C39.9157 12.8746 40.0748 12.9405 40.192 13.0578L45.9999 18.8664L51.8077 13.0578C51.8657 12.9997 51.9347 12.9537 52.0105 12.9222C52.0864 12.8908 52.1677 12.8746 52.2499 12.8746C52.332 12.8746 52.4133 12.8908 52.4892 12.9222C52.565 12.9537 52.634 12.9997 52.692 13.0578C52.7501 13.1159 52.7962 13.1848 52.8276 13.2607C52.859 13.3365 52.8752 13.4179 52.8752 13.5C52.8752 13.5821 52.859 13.6634 52.8276 13.7393C52.7962 13.8152 52.7501 13.8841 52.692 13.9422Z" fill="#525654"/>
</svg>
