<?xml version="1.0" standalone="no"?>
<!DOCTYPE svg PUBLIC "-//W3C//DTD SVG 20010904//EN"
 "http://www.w3.org/TR/2001/REC-SVG-20010904/DTD/svg10.dtd">
<svg version="1.0" xmlns="http://www.w3.org/2000/svg"
 width="706.000000pt" height="706.000000pt" viewBox="0 0 706.000000 706.000000"
 preserveAspectRatio="xMidYMid meet">
<metadata>
Created by potrace 1.14, written by Peter Selinger 2001-2017
</metadata>
<g transform="translate(0.000000,706.000000) scale(0.100000,-0.100000)"
fill="#000000" stroke="none">
<path d="M3359 7056 c-2 -2 -35 -6 -74 -10 -38 -3 -83 -8 -100 -11 -16 -3 -43
-7 -60 -10 -241 -41 -442 -105 -670 -214 -316 -152 -570 -345 -797 -604 -85
-97 -85 -97 -154 -192 -28 -39 -57 -81 -64 -95 -7 -14 -16 -27 -20 -30 -26
-19 -171 -311 -223 -451 -39 -103 -92 -283 -101 -344 -4 -21 -8 -40 -10 -44
-2 -3 -7 -26 -10 -51 -3 -25 -8 -56 -11 -69 -22 -114 -34 -433 -20 -566 13
-135 29 -238 47 -315 11 -47 22 -95 24 -106 7 -36 44 -154 76 -244 41 -114 76
-185 187 -375 52 -88 103 -176 114 -195 10 -19 78 -136 150 -260 71 -124 138
-240 149 -257 92 -163 252 -440 275 -475 12 -21 23 -39 23 -42 0 -2 17 -33 38
-67 22 -35 51 -86 67 -114 15 -27 76 -133 135 -235 59 -102 201 -347 315 -545
255 -442 222 -384 350 -605 106 -184 129 -223 179 -311 75 -132 198 -208 348
-215 284 -12 492 249 418 526 -9 34 -104 204 -365 655 -32 55 -69 117 -81 137
-13 21 -24 40 -24 43 0 3 -11 22 -23 43 -13 20 -35 57 -49 82 -14 25 -58 101
-98 170 -40 69 -83 143 -96 166 -12 22 -68 118 -123 213 -56 95 -101 174 -101
176 0 2 -25 45 -55 95 -30 50 -55 93 -55 95 0 2 -32 56 -70 121 -39 64 -70
118 -70 119 0 1 -30 54 -66 116 -73 124 -95 162 -130 226 -30 52 -151 263
-163 283 -5 8 -60 103 -122 210 -61 107 -118 202 -125 210 -23 27 -110 204
-137 278 -52 141 -75 239 -102 427 -7 47 -8 279 -1 315 2 14 7 52 11 85 16
146 91 381 171 533 101 193 214 335 396 499 98 87 329 226 468 280 96 38 275
86 365 98 263 35 508 13 763 -70 98 -31 336 -142 374 -174 7 -6 50 -38 96 -71
240 -175 429 -420 555 -720 16 -38 47 -125 52 -150 2 -8 10 -40 18 -70 41
-152 58 -388 42 -550 -25 -249 -133 -558 -259 -743 -24 -34 -57 -87 -75 -117
-18 -30 -36 -62 -41 -70 -17 -28 -302 -517 -411 -706 -99 -171 -144 -244 -149
-244 -4 0 -13 12 -21 27 -8 15 -49 88 -91 161 -43 73 -78 135 -78 137 0 2 -20
37 -44 77 -24 40 -87 150 -141 243 -54 94 -138 238 -186 321 -48 83 -96 166
-107 185 -10 19 -70 122 -132 229 -62 107 -121 211 -132 230 -11 19 -45 77
-75 128 -30 51 -60 102 -66 115 -7 12 -82 143 -167 290 -193 334 -237 383
-385 421 -186 49 -371 -28 -469 -194 -12 -19 -21 -37 -21 -40 -1 -3 -7 -22
-14 -43 -18 -53 -21 -158 -7 -215 17 -64 36 -103 127 -257 41 -71 87 -150 101
-175 14 -25 90 -158 170 -295 154 -264 313 -540 356 -615 68 -121 135 -236
142 -245 4 -5 21 -35 38 -65 16 -30 112 -197 212 -370 101 -173 197 -340 213
-370 17 -30 64 -111 104 -179 40 -67 73 -124 73 -126 0 -1 51 -90 113 -197 61
-106 118 -205 125 -218 7 -14 30 -43 50 -66 132 -147 334 -185 509 -95 52 26
134 103 161 151 23 41 148 258 161 280 6 8 72 123 148 254 171 296 162 281
298 516 175 303 227 393 246 425 11 17 22 37 26 45 4 8 26 47 48 85 23 39 53
90 67 115 14 25 73 127 131 228 132 230 195 397 245 652 39 194 46 276 46 490
0 147 -10 336 -19 350 -2 3 -6 30 -10 60 -32 269 -184 666 -360 936 -113 174
-190 269 -345 424 -251 252 -528 431 -875 565 -95 37 -229 79 -283 90 -9 1
-35 8 -57 13 -41 11 -199 39 -264 48 -46 5 -457 15 -462 10z"/>
</g>
</svg>
